<svg width="200" height="200" xmlns="http://www.w3.org/2000/svg">
    <g transform="translate(25, 0)">
        <rect y="74" width="40.75" fill="#80A5E4" height="111" x="1.5"></rect>
        <rect y="0" width="40.75" fill="#80A5E4" height="185" x="45.25"></rect>
        <rect y="74" width="40.75" fill="#80A5E4" height="111" x="89"></rect>
        <rect y="111" width="40.75" fill="#80A5E4" height="74" x="132.75"></rect>
    </g>
    <g transform="translate(25, 185)">
        <text y="10" font-weight="100" x="21.875" font-size="10" text-anchor="middle">one</text>
        <text y="10" font-weight="100" x="65.625" font-size="10" text-anchor="middle">two</text>
        <text y="10" font-weight="100" x="109.375" font-size="10" text-anchor="middle">three</text>
        <text y="10" font-weight="100" x="153.125" font-size="10" text-anchor="middle">four</text>
    </g>
    <g>
        <text y="185" font-weight="100" x="15" font-size="10" text-anchor="middle" transform="rotate(-90, 15,185)">0
        </text>
        <text y="148" font-weight="100" x="15" font-size="10" text-anchor="middle" transform="rotate(-90, 15,148)">1
        </text>
        <text y="111" font-weight="100" x="15" font-size="10" text-anchor="middle" transform="rotate(-90, 15,111)">2
        </text>
        <text y="74" font-weight="100" x="15" font-size="10" text-anchor="middle" transform="rotate(-90, 15,74)">3
        </text>
        <text y="37" font-weight="100" x="15" font-size="10" text-anchor="middle" transform="rotate(-90, 15,37)">4
        </text>
        <text y="0" font-weight="100" x="15" font-size="10" text-anchor="end" transform="rotate(-90, 15,0)">5</text>
    </g>
</svg>