<svg width="500" height="500" xmlns="http://www.w3.org/2000/svg">
    <g transform="translate(0, 1)">
        <path fill="#80A5E4" d="M 250,2 A 248,248, 0, 0, 1, 389.703374399778,45.0927839696333 L 250,250 Z"></path>
        <path fill="#D45D5D"
              d="M 389.703374399778,45.0927839696333 A 248,248, 0, 0, 1, 478.04288759276,152.529792149827 L 250,250 Z"></path>
        <path fill="#F2AE4E"
              d="M 478.04288759276,152.529792149827 A 248,248, 0, 0, 1, 495.755540918448,283.289849922779 L 250,250 Z"></path>
        <path fill="#D4D13F"
              d="M 495.755540918448,283.289849922779 A 248,248, 0, 0, 1, 448.433119906779,398.755829882603 L 250,250 Z"></path>
        <path fill="#2fb328"
              d="M 448.433119906779,398.755829882603 A 248,248, 0, 0, 1, 357.603167301154,473.4402792398 L 250,250 Z"></path>
        <path fill="#4221e1" d="M 357.603167301154,473.4402792398 A 248,248, 0, 0, 1, 250,498 L 250,250 Z"></path>
        <path fill="#873BE3" d="M 250,498 A 248,248, 0, 0, 1, 149.129312517202,476.559273495365 L 250,250 Z"></path>
        <path fill="#d78535"
              d="M 149.129312517202,476.559273495365 A 248,248, 0, 0, 1, 70.746873770807,421.383536948742 L 250,250 Z"></path>
        <path fill="#8bbf41"
              d="M 70.746873770807,421.383536948742 A 248,248, 0, 0, 1, 21.9571124072403,347.470207850173 L 250,250 Z"></path>
        <path fill="#3fdfe3"
              d="M 21.9571124072403,347.470207850173 A 248,248, 0, 0, 1, 2.69345829906732,268.533063209433 L 250,250 Z"></path>
        <path fill="#254725"
              d="M 2.69345829906732,268.533063209433 A 248,248, 0, 0, 1, 8.21787777890774,194.814808378834 L 250,250 Z"></path>
        <path fill="#741c1e"
              d="M 8.21787777890774,194.814808378834 A 248,248, 0, 0, 1, 31.6123080995289,132.480571706696 L 250,250 Z"></path>
        <path fill="#9b6f35"
              d="M 31.6123080995289,132.480571706696 A 248,248, 0, 0, 1, 65.7000832816061,84.0556096230033 L 250,250 Z"></path>
        <path fill="#6c6920"
              d="M 65.7000832816061,84.0556096230033 A 248,248, 0, 0, 1, 104.229257431467,49.3637853950131 L 250,250 Z"></path>
        <path fill="#354631"
              d="M 104.229257431467,49.3637853950131 A 248,248, 0, 0, 1, 142.396832698846,26.5597207602001 L 250,250 Z"></path>
        <path fill="#100a33"
              d="M 142.396832698846,26.5597207602001 A 248,248, 0, 0, 1, 176.900716746096,13.0179441650371 L 250,250 Z"></path>
        <path fill="#412174"
              d="M 176.900716746096,13.0179441650371 A 248,248, 0, 0, 1, 205.717890089938,5.98546202753985 L 250,250 Z"></path>
        <path fill="#5e3a17"
              d="M 205.717890089938,5.98546202753985 A 248,248, 0, 0, 1, 227.769451391948,2.99837508918074 L 250,250 Z"></path>
        <path fill="#334618"
              d="M 227.769451391948,2.99837508918074 A 248,248, 0, 0, 1, 242.580964389989,2.11099679369119 L 250,250 Z"></path>
        <path fill="#19585a" d="M 242.580964389989,2.11099679369119 A 248,248, 0, 0, 1, 250,2 L 250,250 Z"></path>
    </g>
</svg>