<svg width="200" height="20" xmlns="http://www.w3.org/2000/svg">
    <g transform="translate(0, 1)">
        <polyline
                points="0,8.68590687597509 0.557103064066852,8.37219641785405 1.1142061281337,8.05925083027587 1.67130919220056,7.74745138354122 2.22841225626741,7.43717795157552 2.78551532033426,7.12880854911802 3.34261838440111,6.82271887117596 3.89972144846797,6.51928183530486 4.45682451253482,6.21886712727277 5.01392757660167,5.92184075066176 5.57103064066852,5.62856458095565 6.12813370473538,5.33939592465703 6.68523676880223,5.05468708397082 7.24233983286908,4.77478492758473 7.79944289693593,4.50003046806949 8.35654596100279,4.23075844641377 8.91364902506964,3.96729692419993 9.47075208913649,3.70996688391747 10.0278551532033,3.45908183790122 10.5849582172702,3.21494744637044 11.142061281337,2.97786114503457 11.6991643454039,2.74811178271904 12.2562674094708,2.52597926945269 12.8133704735376,2.31173423544562 13.3704735376045,2.10563770137289 13.9275766016713,1.9079407603658 14.4846796657382,1.71888427209814 15.041782729805,1.53869856934014 15.5988857938719,1.3676031773377 16.1559888579387,1.20580654635865 16.7130919220056,1.05350579773202 17.2701949860724,0.910886483689657 17.8272980501393,0.778122361302755 18.3844011142061,0.655375180788819 18.941504178273,0.542794488446879 19.4986072423398,0.440517444461072 20.0557103064067,0.348668655794581 20.6128133704735,0.267360024377515 21.1699164345404,0.196690610773681 21.7270194986072,0.136746513492344 22.2841225626741,0.087600764092022 22.8412256267409,0.0493132382041162 23.3983286908078,0.0219305825847582 23.9554317548747,0.00548615828377685 24.5125348189415,0 25.0696378830084,0.00547879167243193 25.6267409470752,0.0219158583370151 26.1838440111421,0.0492911742589333 26.7409470752089,0.0875713873305186 27.2980501392758,0.136709859705043 27.8551532033426,0.196646724616909 28.4122562674095,0.267308959318995 28.9693593314763,0.348610474048296 29.5264623955432,0.440452216911456 30.08356545961,0.542722294562472 30.6406685236769,0.65529610852543 31.1977715877437,0.778036506996317 31.7548746518106,0.91079395193886 32.3119777158774,1.05340670127087 32.8690807799443,1.20570100591911 33.4261838440111,1.36749132150262 33.983286908078,1.53858053438659 34.5403899721449,1.71876020183138 35.0974930362117,1.9078108059441 35.6545961002786,2.10550202112331 36.2116991643454,2.31159299467118 36.7688022284123,2.52583264023095 37.3259052924791,2.74795994369246 37.883008356546,2.97770428119285 38.4401114206128,3.21478574882514 38.9972144846797,3.45891550365296 39.5543175487465,3.7097961156159 40.1114206128134,3.96712192989679 40.6685236768802,4.2305794393095 41.2256267409471,4.49984766625341 41.7827298050139,4.77459855376936 42.3398328690808,5.05449736522056 42.8969359331476,5.3392030921115 43.4540389972145,5.62836886954811 44.0111420612813,5.92164239883284 44.5682451253482,6.21866637668001 45.125348189415,6.51907893052829 45.6824512534819,6.8225140594201 46.2395543175488,7.12860207991072 46.7966573816156,7.43697007646396 47.3537604456825,7.74724235578541 47.9108635097493,8.05904090454014 48.4679665738162,8.37198584989674 49.025069637883,8.685695922337 49.5821727019499,8.99978892016713 50.1392757660167,9.31388217516469 50.6963788300836,9.62759301879395 51.2534818941504,9.94053924842156 51.8105849582173,10.2523395929646 52.3676880222841,10.5626141774039 52.924791086351,10.870984985596 53.4818941504178,11.1770763208212 54.0389972144847,11.4805152635046 54.5961002785515,11.7809321255553 55.1532033426184,12.0779609007668 55.7103064066852,12.3712397107329 56.2674094707521,12.6604112457345 56.8245125348189,12.9451232000594 57.3816155988858,13.2250287012264 57.9387186629527,13.4997867325898 58.4958217270195,13.7690625488092 59.0529247910864,14.0325280836792 59.6100278551532,14.2898623498217 60.1671309192201,14.5407518297533 60.7242339832869,14.7848908578527 61.2813370473538,15.0219819927617 61.8384401114206,15.251736379766 62.3955431754875,15.473874102715 62.9526462395543,15.6881245250516 63.5097493036212,15.8942266195358 64.066852367688,16.091929286262 64.6239554317549,16.2809916585806 65.1810584958217,16.4611833965527 65.7381615598886,16.6322849675795 66.2952646239554,16.7940879138651 66.8523676880223,16.9463951063863 67.4094707520891,17.0890209850606 67.966573816156,17.2217917848188 68.5236768802229,17.3445457473083 69.0807799442897,17.4571333179673 69.6378830083566,17.5594173282316 70.1949860724234,17.6512731626509 70.7520891364903,17.732588910711 71.3091922005571,17.8032655031777 71.866295264624,17.8632168327956 72.4233983286908,17.9123698591947 72.9805013927577,17.9506646978778 73.5376044568245,17.9780546931796 74.0947075208914,17.9945064751079 74.6518105849582,18 75.2089136490251,17.9945285749419 75.7660167130919,17.9780988659228 76.3231197771588,17.9507308897134 76.8802228412256,17.9124579894792 77.4373259052925,17.8633267941575 77.9944289693593,17.803397161648 78.5515320334262,17.7327421058866 79.108635097493,17.6514477078897 79.6657381615599,17.5596130108804 80.2228412256268,17.4573498996205 80.7799442896936,17.3447829640984 81.3370473537605,17.2220493477381 81.8941504178273,17.0892985803129 82.4512534818942,16.9466923957697 83.008356545961,16.7944045351837 83.5654596100279,16.6326205350847 84.1225626740947,16.4615375014133 84.6796657381616,16.2813638693808 85.2367688022284,16.092319149527 85.7938718662953,15.8946336602844 86.3509749303621,15.6885482473748 86.908077994429,15.4743139903802 87.4651810584958,15.2521918968457 88.0222841225627,15.0224525842868 88.5793871866295,14.7853759504885 89.1364902506964,14.5412508324979 89.6935933147632,14.2903746547263 90.2506963788301,14.0330530665885 90.8077994428969,13.7695995701219 91.3649025069638,13.5003351380379 91.9220055710306,13.2255878226724 92.4791086350975,12.94569235631 93.0362116991644,12.660989743371 93.5933147632312,12.3718268449554 94.1504178272981,12.0785559562534 94.7075208913649,11.7815343773335 95.2646239554318,11.4811239778342 95.8217270194986,11.1776907560886 96.3788300835655,10.8716043932178 96.9359331476323,10.5632378027385 97.4930362116992,10.2529666762319 98.050139275766,9.94116902562865 98.6072423398329,9.62822472266575 99.1643454038997,9.31451503607884 99.7214484679666,9.00042216709159 100.278551532033,8.68632878376947 100.8356545961,8.37261755480455 101.392757660167,8.05967068329967 101.949860724234,7.7478694411197 102.506963788301,7.43759370437752 103.064066852368,7.12922149062035 103.621169916435,6.82312849828053 104.178272980501,6.51968764895159 104.735376044568,6.21926863304763 105.292479108635,5.92223745939911 105.849582172702,5.62895600933422 106.406685236769,5.33978159578874 106.963788300836,5.05506652798184 107.520891364903,4.77515768218788 108.077994428969,4.50039607912747 108.635097493036,4.23111646849249 109.192200557103,3.96764692111112 109.74930362117,3.71030842925021 110.306406685237,3.45941451554132 110.863509749304,3.2152708510075 111.42061281337,2.97817488265574 111.977715877437,2.74841547108907 112.534818941504,2.5262725385796 113.091922005571,2.31201672803148 113.649025069638,2.10590907324914 114.206128133705,1.90820068091256 114.763231197772,1.71913242464697 115.320334261838,1.53893465155991 115.877437325905,1.36782690160287 116.434540389972,1.20601764009975 116.991643454039,1.05370400376768 117.548746518106,0.911071560539955 118.105849582173,0.778294083483426 118.66295264624,0.65553333908596 119.220055710306,0.542938890171846 119.777158774373,0.440647913685234 120.33426183844,0.348785033563655 120.891364902507,0.267462168905235 121.448467966574,0.196778397614532 122.005571030641,0.136819835693177 122.562674094708,0.0876595323223661 123.119777158774,0.0493573808650047 123.676880222841,0.021960045895963 124.233983286908,0.00550090634932365 124.791086350975,1.48519136988767E-8 125.348189415042,0.005464073292615 125.905292479109,0.0218864246572816 126.462395543175,0.0492470611391522 127.019498607242,0.0875126485149271 127.576601671309,0.13663656675677 128.133704735376,0.196558966830797 128.690807799443,0.267206843612786 129.24791086351,0.348494124832391 129.805013927577,0.440321775937342 130.362116991643,0.542577920750001 130.91922005571,0.655137977769229 131.476323119777,0.777864811951481 132.033426183844,0.910608901786229 132.590529247911,1.05320852146218 133.147632311978,1.20548993790233 133.704735376045,1.36726762242778 134.261838440111,1.53834447679249 134.818941504178,1.71851207331355 135.376044568245,1.90755090880438 135.933147632312,2.10523067200161 136.490250696379,2.31131052415967 137.047353760446,2.52553939247131 137.604456824513,2.74765627595657 138.161559888579,2.97739056344754 138.718662952646,3.21446236328148 139.275766016713,3.45858284430052 139.83286908078,3.7094545877428 140.389972144847,3.96677194959593 140.947075208914,4.23022143297161 141.504178272981,4.49948207004754 142.061281337047,4.77422581311153 142.618384401114,5.05411793423106 143.175487465181,5.33881743306165 143.732590529248,5.62797745229704 144.289693593315,5.92124570025506 144.846796657382,6.2182648800844 145.403899721448,6.51867312506932 145.961002785515,6.82210443950181 146.518105849582,7.12818914458445 147.075208913649,7.43655432882028 147.632311977716,7.74682430234123 148.189415041783,8.05862105462157 148.74651810585,8.37156471501859 149.303621169916,8.68527401557961 149.860724233983,8.9993667555512 150.41782729805,9.31346026702511 150.974930362117,9.62717188115311 151.532033426184,9.94011939436314 152.089136490251,10.2519215340085 152.646239554318,10.5621984228829 153.203342618384,10.8705720420355 153.760445682451,11.1766666913216 154.317548746518,11.4801094471291 154.874651810585,11.7805306167211 155.431754874652,12.0775641886433 155.988857938719,12.3708482786456 156.545961002786,12.6600255705759 157.103064066852,12.9447437517082 157.660167130919,13.2246559419752 158.217270194986,13.4994211165815 158.774373259053,13.7687045214839 159.33147632312,14.0321780812316 159.888579387187,14.2895207986695 160.445682451254,14.5404191460177 161.00278551532,14.7845674468515 161.559888579387,15.0216682485156 162.116991643454,15.2514326845183 162.674094707521,15.473580826466 163.231197771588,15.6878420251079 163.788300835655,15.893955240075 164.345403899721,16.0916693579132 164.902506963788,16.2807434980217 165.459610027855,16.4609473061246 166.016713091922,16.6320612349178 166.573816155989,16.7938768115494 167.130919220056,16.9461968916086 167.688022284123,17.0888358993113 168.245125348189,17.2216200535931 168.802228412256,17.344387579831 169.359331476323,17.4569889069383 169.91643454039,17.5592868495909 170.473537604457,17.6511567753643 171.030640668524,17.7324867565763 171.587743732591,17.8031777066521 172.144846796657,17.863143500844 172.701949860724,17.9123110811595 173.259052924791,17.95062054537 173.816155988858,17.9780252199912 174.373259052925,17.9944917171471 174.930362116992,17.9999999752468 175.487465181059,17.9945432834265 176.044568245125,17.9781282897253 176.601671309192,17.9507749929861 177.158774373259,17.9125167184898 177.715877437326,17.8634000773548 178.272980501393,17.8034849097491 178.83008356546,17.7328442119855 179.387186629526,17.6515640475878 179.944289693593,17.5597434424377 180.50139275766,17.4574942641286 181.058495821727,17.3449410856741 181.615598885794,17.2222210337375 182.172701949861,17.0894836215661 182.729805013928,16.9468905668359 183.286908077994,16.7946155946254 183.844011142061,16.6328442257625 184.401114206128,16.4617735507986 184.958217270195,16.2816119898881 185.515320334262,16.0925790388641 186.072423398329,15.894905001821 186.629526462396,15.6888307105279 187.186629526462,15.4746072310171 187.743732590529,15.2524955577032 188.300835654596,15.0227662954065 188.857938718663,14.7856993296674 189.41504178273,14.5415834857541 189.972144846797,14.2907161767792 190.529247910864,14.0334030413522 191.08635097493,13.7699575712125 191.643454038997,13.5007007292927 192.200557103064,13.2259605586814 192.757660167131,12.9460717829586 193.314763231198,12.6613753983931 193.871866295265,12.3722182584969 194.428969359332,12.0789526514442 194.986072423398,11.7819358708689 195.543175487465,11.4815297805635 196.100278551532,11.178100373611 196.657381615599,10.8720173264849 197.214484679666,10.5636535486622 197.771587743733,10.2533847282976 198.328690807799,9.94158887451167 198.885793871866,9.62864585685264 199.442896935933,9.3149369424901 200,9.00084433170694"
                stroke-width="1" fill="none" stroke="#80A5E4"></polyline>
    </g>
</svg>